<svg xmlns="http://www.w3.org/2000/svg" width="138.14" height="104.66" viewBox="0 0 138.14 104.66">
  <g id="Group_105" data-name="Group 105" transform="translate(-836.981 -269.134)">
    <path id="Path_121" data-name="Path 121" d="M841.493,329.662s-4.84,10.949-4.494,12.333,1.267,5.187,6.684,4.61,13.37-10.488,13.37-10.488,18.21,15.9,33.538,19.016c0,0-4.725,5.186-3.8,10.373s14.407,0,14.407,0,7.375-3.919,9.565-7.952c0,0,15.214-1.729,21.553-8.818,0,0,5.3-4.9,7.26-9.046,0,0,6.224.23,7.608-1.037s-.577-7.262-.577-7.262,2.19-3.342,2.19-4.956-2.421-4.61-4.264-4.034a13.968,13.968,0,0,1-3.687.577s-3.227-12.908-20.054-18.21c0,0-6.455-12.564-14.407-12.793s-17.058,2.881-24.664,8.759L869.384,314.1s-10.027,7.031-11.756,9.22c0,0-8.183-9.106-12.908-10.489,0,0-7.411-.921-7.739,5.071A51.445,51.445,0,0,0,841.493,329.662Z" transform="translate(0 5.982)" fill="#e10a1a"/>
    <circle id="Ellipse_8" data-name="Ellipse 8" cx="5.379" cy="5.379" r="5.379" transform="translate(957.029 317.65)" fill="#e10a1a"/>
    <circle id="Ellipse_9" data-name="Ellipse 9" cx="9.408" cy="9.408" r="9.408" transform="translate(939.386 296.326)" fill="#e10a1a"/>
    <circle id="Ellipse_10" data-name="Ellipse 10" cx="11.618" cy="11.618" r="11.618" transform="translate(951.885 269.134)" fill="#e10a1a"/>
  </g>
</svg>
