<svg xmlns="http://www.w3.org/2000/svg" width="109.458" height="82.93" viewBox="0 0 109.458 82.93">
  <g id="Group_65" data-name="Group 65" transform="translate(-836.981 -269.134)">
    <path id="Path_121" data-name="Path 121" d="M840.556,321.835s-3.835,8.676-3.561,9.772,1,4.11,5.3,3.653,10.594-8.31,10.594-8.31,14.429,12.6,26.575,15.068c0,0-3.744,4.109-3.014,8.219s11.416,0,11.416,0,5.844-3.105,7.579-6.3c0,0,12.055-1.37,17.078-6.987,0,0,4.2-3.881,5.753-7.168,0,0,4.932.182,6.028-.822s-.457-5.754-.457-5.754,1.735-2.648,1.735-3.927-1.918-3.653-3.379-3.2a11.068,11.068,0,0,1-2.922.457s-2.557-10.228-15.89-14.429c0,0-5.115-9.955-11.416-10.137s-13.516,2.283-19.543,6.94l-9.772,10.594s-7.945,5.571-9.315,7.306c0,0-6.484-7.215-10.228-8.311,0,0-5.872-.73-6.132,4.018A40.758,40.758,0,0,0,840.556,321.835Z" fill="#faecd3"/>
    <circle id="Ellipse_8" data-name="Ellipse 8" cx="4.262" cy="4.262" r="4.262" transform="translate(932.104 307.576)" fill="#faecd3"/>
    <circle id="Ellipse_9" data-name="Ellipse 9" cx="7.454" cy="7.454" r="7.454" transform="translate(918.124 290.68)" fill="#faecd3"/>
    <circle id="Ellipse_10" data-name="Ellipse 10" cx="9.206" cy="9.206" r="9.206" transform="translate(928.028 269.134)" fill="#faecd3"/>
  </g>
</svg>
