<svg xmlns="http://www.w3.org/2000/svg" width="765" height="214.929" viewBox="0 0 765 214.929">
  <g id="Group_74" data-name="Group 74" transform="translate(-1539.84 842.189)">
    <g id="Group_39" data-name="Group 39" transform="translate(1539.84 -842.189)">
      <g id="Group_8" data-name="Group 8" transform="translate(152.126 52.886)">
        <path id="Path_46" data-name="Path 46" d="M1753.119-718.655c-18.449,50.734-46.43,115.305-83.02,115.305-34.747,0-34.131-50.12-10.454-115.305,9.223-25.523,24.6-46.738,43.046-46.738,11.375,0,19.679,6.764,19.679,18.756,0,21.832-22.753,44.893-45.508,43.049,3.691,8.917,12.3,14.145,24.6,14.145,15.374,0,35.975-13.223,41.816-29.211Zm-78.1,4.92v2.766c16.6.308,33.208-15.989,33.208-30.44,0-6.15-3.075-9.531-8.3-9.531C1686.7-750.939,1675.019-731.26,1675.019-713.735Z" transform="translate(-1642.808 765.393)" fill="#e10a1a"/>
      </g>
      <g id="Group_9" data-name="Group 9" transform="translate(232.708 3.996)">
        <path id="Path_47" data-name="Path 47" d="M1828.237-702.857c-14.452,39.973-45.2,115.305-69.183,115.305-16.3,0-11.07-29.517-4.305-57.191-9.533,23.368-23.061,57.191-43.048,57.191-31.364,0-2.767-92.859,5.534-115.305,11.993-32.593,27.981-47.351,44.585-47.351,11.377,0,15.375,6.149,16.6,14.758h.616c11.069-32.593,17.525-61.8-11.685-61.8v-1.229h52.271c-10.146,14.143-19.677,37.205-27.058,58.116-12.3,33.821-20.6,64.57-1.231,64.57,11.378,0,21.831-12.608,27.059-27.059Zm-56.577-23.061c0-8-4.3-11.685-10.146-11.685-17.219,0-32.285,30.749-32.285,48.891,0,10.454,5.534,13.22,10.147,13.22C1755.364-675.492,1771.66-709.622,1771.66-725.918Z" transform="translate(-1697.35 798.484)" fill="#e10a1a"/>
      </g>
      <g id="Group_10" data-name="Group 10" transform="translate(463.14 52.578)">
        <path id="Path_48" data-name="Path 48" d="M1984.228-718.555c-14.146,39.051-45.2,115.3-67.646,115.3-17.525,0-13.838-31.057-7.687-57.191-11.069,25.521-23.676,57.191-41.818,57.191-28.288,0-6.15-81.791,6.151-115.3,11.991-32.594,28.595-47.046,45.2-47.046,12.607,0,18.143,6.149,27.057,6.149,4,0,6.765-.614,11.685-4.3l1.231,1.231c-15.99,16.3-23.062,39.664-23.062,55.347,0,11.07,4.92,16.914,12.915,16.914,11.377,0,21.215-14.145,26.136-28.29Zm-55.961-23.676c0-8-4.613-11.686-10.148-11.686-17.833,0-33.209,33.516-33.209,49.506,0,8.3,4,13.22,10.455,13.22C1912.279-691.191,1928.268-726.242,1928.268-742.231Z" transform="translate(-1853.319 765.601)" fill="#e10a1a"/>
      </g>
      <g id="Group_11" data-name="Group 11" transform="translate(564.085)">
        <path id="Path_49" data-name="Path 49" d="M2010.948-701.565c-15.68,43.048-45.506,115.305-73.179,115.305-25.52,0-18.141-54.423,4-115.305,10.761-29.519,11.069-41.818-3.691-41.818v-1.537h37.514c-10.148,11.376-21.831,35.668-21.831,53.809,0,12.3,6.148,17.527,15.682,17.527,12.606,0,26.136-13.221,31.67-27.981Zm-68.259-77.179v-1.538c11.991-.306,24.29-9.838,28.288-20.907h1.538c-1.23,10.761,7.377,21.217,17.524,21.829v1.538c-10.453,1.231-23.983,10.455-28.288,22.447h-1.538C1961.137-766.446,1954.064-777.822,1942.689-778.744Z" transform="translate(-1921.645 801.189)" fill="#e10a1a"/>
      </g>
      <g id="Group_12" data-name="Group 12" transform="translate(624.951 3.996)">
        <path id="Path_50" data-name="Path 50" d="M2041.707-702.857c-13.837,38.129-45.2,115.305-67.032,115.305-20.6,0-11.684-64.262,6.765-115.305,15.682-43.664,37.513-94.4,6.15-94.4v-1.229h46.737c-9.84,14.143-19.064,37.205-26.751,58.116-12.3,33.821-20.909,64.57-.616,64.57,10.763,0,19.679-12.914,24.906-27.059Z" transform="translate(-1962.842 798.484)" fill="#e10a1a"/>
      </g>
      <g id="Group_13" data-name="Group 13" transform="translate(678.828 48.582)">
        <path id="Path_51" data-name="Path 51" d="M2024.292-717.264c-6.765,16.91-2.767,36.588,12.607,36.588,8.917,0,13.836-6.762,13.836-14.45,0-15.68-19.679-23.676-19.679-43.355,0-14.145,10.146-25.828,25.213-25.828,6.458,0,9.839,2.153,17.221,2.153,2.768,0,6.148-.309,11.683-6.149h.308l-12.3,37.512h-1.536c-.618-13.22-5.845-21.215-14.761-21.215-7.071,0-12.3,5.536-12.3,13.528,0,22.754,41.2,24.292,19.369,89.477-7.687,23.063-22.137,47.046-41.509,47.046-33.516,0-25.522-67.031-7.994-115.3Z" transform="translate(-1999.309 768.306)" fill="#e10a1a"/>
      </g>
      <g id="Group_15" data-name="Group 15" transform="translate(392.727 9.097)">
        <g id="Group_14" data-name="Group 14">
          <path id="Path_52" data-name="Path 52" d="M1836.572-731.875c-8.368,20.926-3.423,45.275,15.6,45.275,11.033,0,17.12-8.37,17.12-17.881,0-19.4-24.349-29.3-24.349-53.647,0-17.5,12.554-31.958,31.2-31.958,7.99,0,12.175,2.664,21.306,2.664,3.425,0,7.611-.381,14.458-7.61h.379l-15.217,46.418h-1.9c-.76-16.359-7.229-26.254-18.262-26.254-8.75,0-15.219,6.849-15.219,16.741,0,28.155,50.983,30.057,23.97,110.716-9.512,28.535-27.393,58.212-51.363,58.212-41.471,0-31.579-82.942-9.893-142.675Z" transform="translate(-1805.66 795.032)" fill="#e10a1a"/>
        </g>
      </g>
      <g id="Group_38" data-name="Group 38" transform="translate(0 15.065)">
        <g id="Group_16" data-name="Group 16" transform="translate(59.435)">
          <path id="Path_53" data-name="Path 53" d="M1605.392-786.9a15.405,15.405,0,0,0-1.482-4.1h-23.842v1.536a54.923,54.923,0,0,1,6.43.508,32.656,32.656,0,0,1,3.5-.195C1596.018-789.142,1599.773-787.555,1605.392-786.9Z" transform="translate(-1580.068 790.992)" fill="#e10a1a"/>
        </g>
        <g id="Group_18" data-name="Group 18" transform="translate(72.056 21.625)">
          <path id="Path_55" data-name="Path 55" d="M1599.959-773.371a19.8,19.8,0,0,0-1.993-2.984c-.739,8.433-4.137,22.1-9.354,38.359.025.031.05.062.073.093C1593.24-750.4,1597.558-762.773,1599.959-773.371Z" transform="translate(-1588.612 776.355)" fill="#e10a1a"/>
        </g>
        <g id="Group_19" data-name="Group 19" transform="translate(80.036)">
          <path id="Path_56" data-name="Path 56" d="M1684.107-704.59c-6.149,16.3-12.914,23.368-23.062,23.368-11.069,0-16.6-8.61-17.526-18.757-.922-10.762-3.075-15.682-17.22-17.525v-.615c26.443-1.846,44.278-21.217,44.278-41.511,0-21.216-15.681-31.362-38.435-31.362h-10.049c-7.028,12.348-13.588,28.944-19.214,44.247a286.664,286.664,0,0,0-8.866,27.735,51.622,51.622,0,0,1,2.616,6.068c.052-.189.1-.375.151-.564h12.608c6.76,0,10.94,1.184,13.457,3.568.523-1.211,1.024-2.438,1.483-3.681h8.689c-1.919,5.288-4.219,11.426-6.809,18.018-1.286,23.12-17.437,54.224-17.437,80.8,0,19.678,8.612,23.675,16.6,23.675,23.985,0,48.276-57.807,68.571-113.461ZM1611.232-725.5h-11.377l3.69-11.685,11.686-36.9h11.993c10.76,0,21.521,1.536,21.521,17.218C1648.745-740.257,1634.91-725.5,1611.232-725.5Z" transform="translate(-1594.013 790.992)" fill="#e10a1a"/>
        </g>
        <g id="Group_20" data-name="Group 20" transform="translate(65.864 1.85)">
          <path id="Path_57" data-name="Path 57" d="M1603.314-787.493c-5.619-.661-9.374-2.247-15.4-2.247a32.634,32.634,0,0,0-3.5.2c8.977,1.3,15.71,5.385,15.71,16.4,0,.949-.065,2.027-.165,3.177a19.772,19.772,0,0,1,1.992,2.984C1603.8-775.116,1604.5-782.193,1603.314-787.493Z" transform="translate(-1584.421 789.74)" fill="#e10a1a"/>
        </g>
        <g id="Group_21" data-name="Group 21" transform="translate(71.08 59.985)">
          <path id="Path_58" data-name="Path 58" d="M1588.928-750.391c-.312.971-.651,1.983-.977,2.971q.528-1.44,1.051-2.878Z" transform="translate(-1587.951 750.391)" fill="#e10a1a"/>
        </g>
        <g id="Group_22" data-name="Group 22" transform="translate(77.638 71.983)">
          <path id="Path_59" data-name="Path 59" d="M1600.585-713.211A61.353,61.353,0,0,0,1597.4-736.2a51.267,51.267,0,0,0-2.617-6.068C1590.882-726.506,1591.05-714.886,1600.585-713.211Z" transform="translate(-1592.39 742.27)" fill="#e10a1a"/>
        </g>
        <g id="Group_23" data-name="Group 23" transform="translate(14.076 63.268)">
          <path id="Path_60" data-name="Path 60" d="M1549.368-735.889c1.636-4.578,2.967-8.662,3.972-12.28Q1551.292-742.187,1549.368-735.889Z" transform="translate(-1549.368 748.169)" fill="#e10a1a"/>
        </g>
        <g id="Group_24" data-name="Group 24" transform="translate(2.029 132.303)">
          <path id="Path_61" data-name="Path 61" d="M1590.694-701.442c-12.643,25.438-27.451,46.892-41.62,46.892a11.523,11.523,0,0,1-7.86-2.807c1.608,6.935,4.223,12.57,8.068,16.373a21.755,21.755,0,0,0,15.937,6.3c10.9,0,21.838-8.89,30.89-20.435C1587.832-658.61,1586.98-677.729,1590.694-701.442Z" transform="translate(-1541.214 701.442)" fill="#e10a1a"/>
        </g>
        <g id="Group_25" data-name="Group 25" transform="translate(45.952 62.956)">
          <path id="Path_62" data-name="Path 62" d="M1585.436-718.743q.97-2.5,1.914-4.979c3.254-8.593,6.169-16.872,8.721-24.658-1.771,4.837-3.554,9.675-5.259,14.417l-.012.036c-3.712,9.874-11.472,18.948-19.857,22.764.213.006.416.025.632.025C1578.108-711.139,1582.815-714.228,1585.436-718.743Z" transform="translate(-1570.943 748.38)" fill="#e10a1a"/>
        </g>
        <g id="Group_26" data-name="Group 26" transform="translate(60.445 87.614)">
          <path id="Path_63" data-name="Path 63" d="M1582.666-731.69q-.939,2.476-1.912,4.979A17.581,17.581,0,0,0,1582.666-731.69Z" transform="translate(-1580.753 731.69)" fill="#e10a1a"/>
        </g>
        <g id="Group_27" data-name="Group 27" transform="translate(60.445 87.614)" opacity="0.33">
          <path id="Path_64" data-name="Path 64" d="M1582.666-731.69q-.939,2.476-1.912,4.979A17.581,17.581,0,0,0,1582.666-731.69Z" transform="translate(-1580.753 731.69)" fill="#e10a1a"/>
        </g>
        <g id="Group_28" data-name="Group 28" transform="translate(83.276)">
          <path id="Path_65" data-name="Path 65" d="M1602.54-786.611c2.724,0,5.96-.269,10.759-4.38h-17.094a15.405,15.405,0,0,1,1.481,4.1A41.318,41.318,0,0,0,1602.54-786.611Z" transform="translate(-1596.205 790.992)" fill="#e10a1a"/>
        </g>
        <g id="Group_29" data-name="Group 29" transform="translate(83.276)" opacity="0.33">
          <path id="Path_66" data-name="Path 66" d="M1602.54-786.611c2.724,0,5.96-.269,10.759-4.38h-17.094a15.405,15.405,0,0,1,1.481,4.1A41.318,41.318,0,0,0,1602.54-786.611Z" transform="translate(-1596.205 790.992)" fill="#e10a1a"/>
        </g>
        <g id="Group_30" data-name="Group 30" transform="translate(108.869 77.372)">
          <path id="Path_67" data-name="Path 67" d="M1615.012-738.622c-.46,1.244-.961,2.47-1.483,3.682,2.636,2.5,3.453,6.31,3.453,11.5,0,.93-.038,1.879-.091,2.838,2.59-6.592,4.891-12.731,6.809-18.019Z" transform="translate(-1613.529 738.622)" fill="#e10a1a"/>
        </g>
        <g id="Group_31" data-name="Group 31" transform="translate(108.869 77.372)" opacity="0.33">
          <path id="Path_68" data-name="Path 68" d="M1615.012-738.622c-.46,1.244-.961,2.47-1.483,3.682,2.636,2.5,3.453,6.31,3.453,11.5,0,.93-.038,1.879-.091,2.838,2.59-6.592,4.891-12.731,6.809-18.019Z" transform="translate(-1613.529 738.622)" fill="#e10a1a"/>
        </g>
        <g id="Group_32" data-name="Group 32" transform="translate(72.13)">
          <path id="Path_69" data-name="Path 69" d="M1605.781-749.73h-1.808c-.319-6.846-1.708-12.469-4.039-16.652-2.4,10.6-6.718,22.967-11.273,35.469a65.379,65.379,0,0,1,7.906,11.9,286.608,286.608,0,0,1,8.866-27.735c5.626-15.3,12.186-31.9,19.213-44.247h-5.338Z" transform="translate(-1588.662 790.992)" fill="#e10a1a"/>
        </g>
        <g id="Group_33" data-name="Group 33" transform="translate(72.13)" opacity="0.33">
          <path id="Path_70" data-name="Path 70" d="M1605.781-749.73h-1.808c-.319-6.846-1.708-12.469-4.039-16.652-2.4,10.6-6.718,22.967-11.273,35.469a65.379,65.379,0,0,1,7.906,11.9,286.608,286.608,0,0,1,8.866-27.735c5.626-15.3,12.186-31.9,19.213-44.247h-5.338Z" transform="translate(-1588.662 790.992)" fill="#e10a1a"/>
        </g>
        <g id="Group_34" data-name="Group 34" transform="translate(83.403)">
          <path id="Path_71" data-name="Path 71" d="M1602.14-749.73l13.527-41.261h-2.408c-4.8,4.111-8.035,4.38-10.759,4.38a41.3,41.3,0,0,1-4.853-.284c1.185,5.3.487,12.376-1.355,20.512,2.33,4.183,3.721,9.806,4.04,16.652Z" transform="translate(-1596.292 790.992)" fill="#e10a1a"/>
        </g>
        <g id="Group_35" data-name="Group 35" transform="translate(83.403)" opacity="0.33">
          <path id="Path_72" data-name="Path 72" d="M1602.14-749.73l13.527-41.261h-2.408c-4.8,4.111-8.035,4.38-10.759,4.38a41.3,41.3,0,0,1-4.853-.284c1.185,5.3.487,12.376-1.355,20.512,2.33,4.183,3.721,9.806,4.04,16.652Z" transform="translate(-1596.292 790.992)" fill="#e10a1a"/>
        </g>
        <g id="Group_36" data-name="Group 36" transform="translate(0 57.17)">
          <path id="Path_73" data-name="Path 73" d="M1618.244-672.026c4.9-14.64,7.084-26.527,7.429-36.4-9.533-1.676-9.7-13.3-5.8-29.06a65.352,65.352,0,0,0-7.906-11.905q-.524,1.438-1.051,2.878c-2.551,7.786-5.466,16.066-8.72,24.658a17.552,17.552,0,0,1-1.914,4.979c-2.621,4.515-7.328,7.6-13.861,7.6-.216,0-.419-.019-.633-.025a19.64,19.64,0,0,1-8.095,1.909c-8.419,0-13.85-4.616-13.85-15.476,0-8.76,3.1-19.136,7.356-28.39.133-.349.257-.7.394-1.045h-11.569c-.723,1.991-1.435,4.035-2.141,6.1-1.005,3.618-2.334,7.7-3.971,12.28-10.7,35.149-17.753,76.248-12.047,100.84a11.524,11.524,0,0,0,7.86,2.807c14.17,0,28.978-21.454,41.621-46.892-3.714,23.712-2.862,42.832,5.415,46.318a127.054,127.054,0,0,0,14-22.658A157.516,157.516,0,0,0,1618.244-672.026Z" transform="translate(-1539.84 752.296)" fill="#e10a1a"/>
        </g>
        <g id="Group_37" data-name="Group 37" transform="translate(0 57.17)" opacity="0.33">
          <path id="Path_74" data-name="Path 74" d="M1618.244-672.026c4.9-14.64,7.084-26.527,7.429-36.4-9.533-1.676-9.7-13.3-5.8-29.06a65.352,65.352,0,0,0-7.906-11.905q-.524,1.438-1.051,2.878c-2.551,7.786-5.466,16.066-8.72,24.658a17.552,17.552,0,0,1-1.914,4.979c-2.621,4.515-7.328,7.6-13.861,7.6-.216,0-.419-.019-.633-.025a19.64,19.64,0,0,1-8.095,1.909c-8.419,0-13.85-4.616-13.85-15.476,0-8.76,3.1-19.136,7.356-28.39.133-.349.257-.7.394-1.045h-11.569c-.723,1.991-1.435,4.035-2.141,6.1-1.005,3.618-2.334,7.7-3.971,12.28-10.7,35.149-17.753,76.248-12.047,100.84a11.524,11.524,0,0,0,7.86,2.807c14.17,0,28.978-21.454,41.621-46.892-3.714,23.712-2.862,42.832,5.415,46.318a127.054,127.054,0,0,0,14-22.658A157.516,157.516,0,0,0,1618.244-672.026Z" transform="translate(-1539.84 752.296)" fill="#e10a1a"/>
        </g>
      </g>
    </g>
  </g>
</svg>
